<svg width="21" height="20" viewBox="0 0 21 20" fill="none" xmlns="http://www.w3.org/2000/svg">
<path d="M9.89926 0.345484C10.0489 -0.115171 10.7006 -0.115172 10.8503 0.345483L12.9567 6.82826C13.0236 7.03427 13.2156 7.17375 13.4322 7.17375H20.2486C20.733 7.17375 20.9344 7.79356 20.5425 8.07826L15.0279 12.0848C14.8527 12.2122 14.7794 12.4378 14.8463 12.6439L16.9527 19.1266C17.1024 19.5873 16.5751 19.9704 16.1833 19.6857L10.6687 15.6791C10.4934 15.5518 10.2561 15.5518 10.0809 15.6791L4.56631 19.6857C4.17446 19.9704 3.64722 19.5873 3.79689 19.1266L5.90327 12.6439C5.97021 12.4378 5.89688 12.2122 5.72164 12.0848L0.207058 8.07826C-0.184799 7.79356 0.0165884 7.17375 0.50095 7.17375H7.31735C7.53396 7.17375 7.72594 7.03427 7.79288 6.82826L9.89926 0.345484Z" fill="#FFC700"/>
</svg>
